<svg xmlns="http://www.w3.org/2000/svg" shape-rendering="geometricPrecision" text-rendering="geometricPrecision" image-rendering="optimizeQuality" fill-rule="evenodd" clip-rule="evenodd" viewBox="0 0 512 512"><path fill-rule="nonzero" d="m165.03 416.88 251.84-251.85c9.91 9.92 26.62 26.63 36.54 36.55 4.51 4.5 8.76 7.43 12.76 9.03 5.61 2.22 10.66 2.03 15.15-.09 4.13-1.92 7.32-5.29 9.68-9.67 2.61-4.87 4.28-11.22 5.1-18.02l15.58-153.99C513.67 12.1 506.45-.87 487.99.05l-.82.06c-56.8 6.84-110.46 10.6-167.22 17.47-1.01.12-1.98.41-2.96.88-8.83 4.34-13.93 9.96-15.28 16.73-1.39 6.74 1.1 13.51 7.34 20.31l38.62 38.63L94.13 347.67 55.5 309.05c-6.8-6.23-13.57-8.73-20.31-7.34-6.78 1.36-12.39 6.45-16.73 15.28-.47.98-.75 1.95-.88 2.96C10.71 376.71 6.94 430.38.11 487.17l-.06.82c-.93 18.48 12.04 25.69 28.79 23.69l153.99-15.58c6.8-.82 13.14-2.48 18.02-5.1 4.38-2.37 7.74-5.54 9.66-9.67 2.13-4.5 2.31-9.54.1-15.16-1.6-4-4.54-8.24-9.04-12.75l-36.54-36.54z"/></svg>